<?xml version="1.0" encoding="utf-8" standalone="no"?>
<!DOCTYPE svg PUBLIC "-//W3C//DTD SVG 1.1//EN"
  "http://www.w3.org/Graphics/SVG/1.1/DTD/svg11.dtd">
<svg xmlns:xlink="http://www.w3.org/1999/xlink" width="835.2pt" height="331.2pt" viewBox="0 0 835.2 331.2" xmlns="http://www.w3.org/2000/svg" version="1.1">
 <metadata>
  <rdf:RDF xmlns:dc="http://purl.org/dc/elements/1.1/" xmlns:cc="http://creativecommons.org/ns#" xmlns:rdf="http://www.w3.org/1999/02/22-rdf-syntax-ns#">
   <cc:Work>
    <dc:type rdf:resource="http://purl.org/dc/dcmitype/StillImage"/>
    <dc:date>2023-12-27T01:49:27.393288</dc:date>
    <dc:format>image/svg+xml</dc:format>
    <dc:creator>
     <cc:Agent>
      <dc:title>Matplotlib v3.7.2, https://matplotlib.org/</dc:title>
     </cc:Agent>
    </dc:creator>
   </cc:Work>
  </rdf:RDF>
 </metadata>
 <defs>
  <style type="text/css">*{stroke-linejoin: round; stroke-linecap: butt}</style>
 </defs>
 <g id="figure_1">
  <g id="patch_1">
   <path d="M 0 331.2 
L 835.2 331.2 
L 835.2 0 
L 0 0 
z
" style="fill: #ffffff"/>
  </g>
  <g id="axes_1">
   <g id="patch_2">
    <path d="M 7.2 324 
L 326.88 324 
L 326.88 7.2 
L 7.2 7.2 
z
" style="fill: #f8f8ff"/>
   </g>
   <g id="LineCollection_1">
    <path d="M 193.494395 148.858153 
L 299.139174 34.690909 
" clip-path="url(#p1641a2d09e)" style="fill: none; stroke: #3b3c3e; stroke-opacity: 0.8; stroke-width: 2"/>
    <path d="M 193.494395 148.858153 
L 34.940826 121.687293 
" clip-path="url(#p1641a2d09e)" style="fill: none; stroke: #3b3c3e; stroke-opacity: 0.8; stroke-width: 2"/>
    <path d="M 193.494395 148.858153 
L 94.874885 255.433179 
" clip-path="url(#p1641a2d09e)" style="fill: none; stroke: #3b3c3e; stroke-opacity: 0.8; stroke-width: 2"/>
    <path d="M 193.494395 148.858153 
L 240.56142 296.509091 
" clip-path="url(#p1641a2d09e)" style="fill: none; stroke: #3b3c3e; stroke-opacity: 0.8; stroke-width: 2"/>
    <path d="M 34.940826 121.687293 
L 94.874885 255.433179 
" clip-path="url(#p1641a2d09e)" style="fill: none; stroke: #3b3c3e; stroke-opacity: 0.8; stroke-width: 2"/>
    <path d="M 94.874885 255.433179 
L 240.56142 296.509091 
" clip-path="url(#p1641a2d09e)" style="fill: none; stroke: #3b3c3e; stroke-opacity: 0.8; stroke-width: 2"/>
   </g>
   <g id="matplotlib.axis_1">
    <g id="xtick_1"/>
    <g id="xtick_2"/>
    <g id="xtick_3"/>
    <g id="xtick_4"/>
    <g id="xtick_5"/>
   </g>
   <g id="matplotlib.axis_2">
    <g id="ytick_1"/>
    <g id="ytick_2"/>
    <g id="ytick_3"/>
    <g id="ytick_4"/>
    <g id="ytick_5"/>
   </g>
   <g id="PathCollection_1">
    <defs>
     <path id="mfd75eb7fea" d="M 0 10 
C 2.652031 10 5.195799 8.946337 7.071068 7.071068 
C 8.946337 5.195799 10 2.652031 10 0 
C 10 -2.652031 8.946337 -5.195799 7.071068 -7.071068 
C 5.195799 -8.946337 2.652031 -10 0 -10 
C -2.652031 -10 -5.195799 -8.946337 -7.071068 -7.071068 
C -8.946337 -5.195799 -10 -2.652031 -10 0 
C -10 2.652031 -8.946337 5.195799 -7.071068 7.071068 
C -5.195799 8.946337 -2.652031 10 0 10 
z
" style="stroke: #000000; stroke-opacity: 0.8"/>
    </defs>
    <g clip-path="url(#p1641a2d09e)">
     <use xlink:href="#mfd75eb7fea" x="193.494395" y="148.858153" style="fill-opacity: 0.8; stroke: #000000; stroke-opacity: 0.8"/>
     <use xlink:href="#mfd75eb7fea" x="299.139174" y="34.690909" style="fill-opacity: 0.8; stroke: #000000; stroke-opacity: 0.8"/>
     <use xlink:href="#mfd75eb7fea" x="34.940826" y="121.687293" style="fill-opacity: 0.8; stroke: #000000; stroke-opacity: 0.8"/>
     <use xlink:href="#mfd75eb7fea" x="94.874885" y="255.433179" style="fill-opacity: 0.8; stroke: #000000; stroke-opacity: 0.8"/>
     <use xlink:href="#mfd75eb7fea" x="240.56142" y="296.509091" style="fill-opacity: 0.8; stroke: #000000; stroke-opacity: 0.8"/>
    </g>
   </g>
   <g id="PathCollection_2">
    <defs>
     <path id="m057e2a884a" d="M 0 9.486833 
C 2.515938 9.486833 4.929167 8.48724 6.708204 6.708204 
C 8.48724 4.929167 9.486833 2.515938 9.486833 0 
C 9.486833 -2.515938 8.48724 -4.929167 6.708204 -6.708204 
C 4.929167 -8.48724 2.515938 -9.486833 0 -9.486833 
C -2.515938 -9.486833 -4.929167 -8.48724 -6.708204 -6.708204 
C -8.48724 -4.929167 -9.486833 -2.515938 -9.486833 0 
C -9.486833 2.515938 -8.48724 4.929167 -6.708204 6.708204 
C -4.929167 8.48724 -2.515938 9.486833 0 9.486833 
z
" style="stroke: #708090"/>
    </defs>
    <g clip-path="url(#p1641a2d09e)">
     <use xlink:href="#m057e2a884a" x="193.494395" y="148.858153" style="fill: #708090; stroke: #708090"/>
     <use xlink:href="#m057e2a884a" x="299.139174" y="34.690909" style="fill: #708090; stroke: #708090"/>
     <use xlink:href="#m057e2a884a" x="34.940826" y="121.687293" style="fill: #708090; stroke: #708090"/>
     <use xlink:href="#m057e2a884a" x="94.874885" y="255.433179" style="fill: #708090; stroke: #708090"/>
     <use xlink:href="#m057e2a884a" x="240.56142" y="296.509091" style="fill: #708090; stroke: #708090"/>
    </g>
   </g>
   <g id="patch_3">
    <path d="M 7.2 324 
L 7.2 7.2 
" style="fill: none; stroke: #000000; stroke-width: 0.8; stroke-linejoin: miter; stroke-linecap: square"/>
   </g>
   <g id="patch_4">
    <path d="M 326.88 324 
L 326.88 7.2 
" style="fill: none; stroke: #000000; stroke-width: 0.8; stroke-linejoin: miter; stroke-linecap: square"/>
   </g>
   <g id="patch_5">
    <path d="M 7.2 324 
L 326.88 324 
" style="fill: none; stroke: #000000; stroke-width: 0.8; stroke-linejoin: miter; stroke-linecap: square"/>
   </g>
   <g id="patch_6">
    <path d="M 7.2 7.2 
L 326.88 7.2 
" style="fill: none; stroke: #000000; stroke-width: 0.8; stroke-linejoin: miter; stroke-linecap: square"/>
   </g>
   <g id="text_1">
    <g clip-path="url(#p1641a2d09e)">
     <!-- 0 -->
     <g transform="translate(195.308106 136.367891) scale(0.14 -0.14)">
      <defs>
       <path id="Helvetica-30" d="M 1731 4475 
Q 2600 4475 2988 3759 
Q 3288 3206 3288 2244 
Q 3288 1331 3016 734 
Q 2622 -122 1728 -122 
Q 922 -122 528 578 
Q 200 1163 200 2147 
Q 200 2909 397 3456 
Q 766 4475 1731 4475 
z
M 1725 391 
Q 2163 391 2422 778 
Q 2681 1166 2681 2222 
Q 2681 2984 2493 3476 
Q 2306 3969 1766 3969 
Q 1269 3969 1039 3501 
Q 809 3034 809 2125 
Q 809 1441 956 1025 
Q 1181 391 1725 391 
z
" transform="scale(0.015625)"/>
      </defs>
      <use xlink:href="#Helvetica-30"/>
     </g>
    </g>
   </g>
   <g id="text_2">
    <g clip-path="url(#p1641a2d09e)">
     <!-- 1 -->
     <g transform="translate(300.952885 22.200647) scale(0.14 -0.14)">
      <defs>
       <path id="Helvetica-31" d="M 613 3169 
L 613 3600 
Q 1222 3659 1462 3798 
Q 1703 3938 1822 4456 
L 2266 4456 
L 2266 0 
L 1666 0 
L 1666 3169 
L 613 3169 
z
" transform="scale(0.015625)"/>
      </defs>
      <use xlink:href="#Helvetica-31"/>
     </g>
    </g>
   </g>
   <g id="text_3">
    <g clip-path="url(#p1641a2d09e)">
     <!-- 2 -->
     <g transform="translate(36.754538 109.197031) scale(0.14 -0.14)">
      <defs>
       <path id="Helvetica-32" d="M 200 0 
Q 231 578 439 1006 
Q 647 1434 1250 1784 
L 1850 2131 
Q 2253 2366 2416 2531 
Q 2672 2791 2672 3125 
Q 2672 3516 2437 3745 
Q 2203 3975 1813 3975 
Q 1234 3975 1013 3538 
Q 894 3303 881 2888 
L 309 2888 
Q 319 3472 525 3841 
Q 891 4491 1816 4491 
Q 2584 4491 2939 4075 
Q 3294 3659 3294 3150 
Q 3294 2613 2916 2231 
Q 2697 2009 2131 1694 
L 1703 1456 
Q 1397 1288 1222 1134 
Q 909 863 828 531 
L 3272 531 
L 3272 0 
L 200 0 
z
" transform="scale(0.015625)"/>
      </defs>
      <use xlink:href="#Helvetica-32"/>
     </g>
    </g>
   </g>
   <g id="text_4">
    <g clip-path="url(#p1641a2d09e)">
     <!-- 3 -->
     <g transform="translate(96.688597 242.942917) scale(0.14 -0.14)">
      <defs>
       <path id="Helvetica-33" d="M 1663 -122 
Q 869 -122 511 314 
Q 153 750 153 1375 
L 741 1375 
Q 778 941 903 744 
Q 1122 391 1694 391 
Q 2138 391 2406 628 
Q 2675 866 2675 1241 
Q 2675 1703 2392 1887 
Q 2109 2072 1606 2072 
Q 1550 2072 1492 2070 
Q 1434 2069 1375 2066 
L 1375 2563 
Q 1463 2553 1522 2550 
Q 1581 2547 1650 2547 
Q 1966 2547 2169 2647 
Q 2525 2822 2525 3272 
Q 2525 3606 2287 3787 
Q 2050 3969 1734 3969 
Q 1172 3969 956 3594 
Q 838 3388 822 3006 
L 266 3006 
Q 266 3506 466 3856 
Q 809 4481 1675 4481 
Q 2359 4481 2734 4176 
Q 3109 3872 3109 3294 
Q 3109 2881 2888 2625 
Q 2750 2466 2531 2375 
Q 2884 2278 3082 2001 
Q 3281 1725 3281 1325 
Q 3281 684 2859 281 
Q 2438 -122 1663 -122 
z
" transform="scale(0.015625)"/>
      </defs>
      <use xlink:href="#Helvetica-33"/>
     </g>
    </g>
   </g>
   <g id="text_5">
    <g clip-path="url(#p1641a2d09e)">
     <!-- 4 -->
     <g transform="translate(242.375132 284.018829) scale(0.14 -0.14)">
      <defs>
       <path id="Helvetica-34" d="M 2116 1584 
L 2116 3613 
L 681 1584 
L 2116 1584 
z
M 2125 0 
L 2125 1094 
L 163 1094 
L 163 1644 
L 2213 4488 
L 2688 4488 
L 2688 1584 
L 3347 1584 
L 3347 1094 
L 2688 1094 
L 2688 0 
L 2125 0 
z
" transform="scale(0.015625)"/>
      </defs>
      <use xlink:href="#Helvetica-34"/>
     </g>
    </g>
   </g>
  </g>
  <g id="axes_2">
   <g id="patch_7">
    <path d="M 348.48 324 
L 828 324 
L 828 7.2 
L 348.48 7.2 
z
" style="fill: #f8f8ff"/>
   </g>
   <g id="LineCollection_2">
    <path d="M 782.950727 132.515766 
L 786.38876 51.158427 
" clip-path="url(#p3f140eead1)" style="fill: none; stroke: #3b3c3e; stroke-opacity: 0.8; stroke-width: 2"/>
    <path d="M 782.950727 132.515766 
L 614.121494 46.119873 
" clip-path="url(#p3f140eead1)" style="fill: none; stroke: #3b3c3e; stroke-opacity: 0.8; stroke-width: 2"/>
    <path d="M 782.950727 132.515766 
L 762.061958 242.583459 
" clip-path="url(#p3f140eead1)" style="fill: none; stroke: #3b3c3e; stroke-opacity: 0.8; stroke-width: 2"/>
    <path d="M 782.950727 132.515766 
L 600.0016 115.722841 
" clip-path="url(#p3f140eead1)" style="fill: none; stroke: #3b3c3e; stroke-opacity: 0.8; stroke-width: 2"/>
    <path d="M 786.38876 51.158427 
L 600.0016 115.722841 
" clip-path="url(#p3f140eead1)" style="fill: none; stroke: #3b3c3e; stroke-opacity: 0.8; stroke-width: 2"/>
    <path d="M 786.38876 51.158427 
L 614.121494 46.119873 
" clip-path="url(#p3f140eead1)" style="fill: none; stroke: #3b3c3e; stroke-opacity: 0.8; stroke-width: 2"/>
    <path d="M 600.0016 115.722841 
L 443.150499 34.690909 
" clip-path="url(#p3f140eead1)" style="fill: none; stroke: #3b3c3e; stroke-opacity: 0.8; stroke-width: 2"/>
    <path d="M 600.0016 115.722841 
L 578.920653 219.640753 
" clip-path="url(#p3f140eead1)" style="fill: none; stroke: #3b3c3e; stroke-opacity: 0.8; stroke-width: 2"/>
    <path d="M 600.0016 115.722841 
L 413.831502 114.806438 
" clip-path="url(#p3f140eead1)" style="fill: none; stroke: #3b3c3e; stroke-opacity: 0.8; stroke-width: 2"/>
    <path d="M 614.121494 46.119873 
L 413.831502 114.806438 
" clip-path="url(#p3f140eead1)" style="fill: none; stroke: #3b3c3e; stroke-opacity: 0.8; stroke-width: 2"/>
    <path d="M 614.121494 46.119873 
L 443.150499 34.690909 
" clip-path="url(#p3f140eead1)" style="fill: none; stroke: #3b3c3e; stroke-opacity: 0.8; stroke-width: 2"/>
    <path d="M 413.831502 114.806438 
L 443.150499 34.690909 
" clip-path="url(#p3f140eead1)" style="fill: none; stroke: #3b3c3e; stroke-opacity: 0.8; stroke-width: 2"/>
    <path d="M 413.831502 114.806438 
L 390.09124 224.737456 
" clip-path="url(#p3f140eead1)" style="fill: none; stroke: #3b3c3e; stroke-opacity: 0.8; stroke-width: 2"/>
    <path d="M 762.061958 242.583459 
L 563.326679 296.509091 
" clip-path="url(#p3f140eead1)" style="fill: none; stroke: #3b3c3e; stroke-opacity: 0.8; stroke-width: 2"/>
    <path d="M 762.061958 242.583459 
L 578.920653 219.640753 
" clip-path="url(#p3f140eead1)" style="fill: none; stroke: #3b3c3e; stroke-opacity: 0.8; stroke-width: 2"/>
    <path d="M 563.326679 296.509091 
L 578.920653 219.640753 
" clip-path="url(#p3f140eead1)" style="fill: none; stroke: #3b3c3e; stroke-opacity: 0.8; stroke-width: 2"/>
    <path d="M 563.326679 296.509091 
L 390.09124 224.737456 
" clip-path="url(#p3f140eead1)" style="fill: none; stroke: #3b3c3e; stroke-opacity: 0.8; stroke-width: 2"/>
    <path d="M 578.920653 219.640753 
L 390.09124 224.737456 
" clip-path="url(#p3f140eead1)" style="fill: none; stroke: #3b3c3e; stroke-opacity: 0.8; stroke-width: 2"/>
   </g>
   <g id="matplotlib.axis_3">
    <g id="xtick_6"/>
    <g id="xtick_7"/>
    <g id="xtick_8"/>
    <g id="xtick_9"/>
    <g id="xtick_10"/>
    <g id="xtick_11"/>
    <g id="xtick_12"/>
    <g id="xtick_13"/>
   </g>
   <g id="matplotlib.axis_4">
    <g id="ytick_6"/>
    <g id="ytick_7"/>
    <g id="ytick_8"/>
    <g id="ytick_9"/>
    <g id="ytick_10"/>
    <g id="ytick_11"/>
    <g id="ytick_12"/>
    <g id="ytick_13"/>
   </g>
   <g id="PathCollection_3">
    <g clip-path="url(#p3f140eead1)">
     <use xlink:href="#mfd75eb7fea" x="782.950727" y="132.515766" style="fill-opacity: 0.8; stroke: #000000; stroke-opacity: 0.8"/>
     <use xlink:href="#mfd75eb7fea" x="786.38876" y="51.158427" style="fill-opacity: 0.8; stroke: #000000; stroke-opacity: 0.8"/>
     <use xlink:href="#mfd75eb7fea" x="600.0016" y="115.722841" style="fill-opacity: 0.8; stroke: #000000; stroke-opacity: 0.8"/>
     <use xlink:href="#mfd75eb7fea" x="614.121494" y="46.119873" style="fill-opacity: 0.8; stroke: #000000; stroke-opacity: 0.8"/>
     <use xlink:href="#mfd75eb7fea" x="413.831502" y="114.806438" style="fill-opacity: 0.8; stroke: #000000; stroke-opacity: 0.8"/>
     <use xlink:href="#mfd75eb7fea" x="443.150499" y="34.690909" style="fill-opacity: 0.8; stroke: #000000; stroke-opacity: 0.8"/>
     <use xlink:href="#mfd75eb7fea" x="762.061958" y="242.583459" style="fill-opacity: 0.8; stroke: #000000; stroke-opacity: 0.8"/>
     <use xlink:href="#mfd75eb7fea" x="563.326679" y="296.509091" style="fill-opacity: 0.8; stroke: #000000; stroke-opacity: 0.8"/>
     <use xlink:href="#mfd75eb7fea" x="578.920653" y="219.640753" style="fill-opacity: 0.8; stroke: #000000; stroke-opacity: 0.8"/>
     <use xlink:href="#mfd75eb7fea" x="390.09124" y="224.737456" style="fill-opacity: 0.8; stroke: #000000; stroke-opacity: 0.8"/>
    </g>
   </g>
   <g id="PathCollection_4">
    <defs>
     <path id="m09f61e73f6" d="M 0 9.486833 
C 2.515938 9.486833 4.929167 8.48724 6.708204 6.708204 
C 8.48724 4.929167 9.486833 2.515938 9.486833 0 
C 9.486833 -2.515938 8.48724 -4.929167 6.708204 -6.708204 
C 4.929167 -8.48724 2.515938 -9.486833 0 -9.486833 
C -2.515938 -9.486833 -4.929167 -8.48724 -6.708204 -6.708204 
C -8.48724 -4.929167 -9.486833 -2.515938 -9.486833 0 
C -9.486833 2.515938 -8.48724 4.929167 -6.708204 6.708204 
C -4.929167 8.48724 -2.515938 9.486833 0 9.486833 
z
" style="stroke: #679fce"/>
    </defs>
    <g clip-path="url(#p3f140eead1)">
     <use xlink:href="#m09f61e73f6" x="782.950727" y="132.515766" style="fill: #679fce; stroke: #679fce"/>
     <use xlink:href="#m09f61e73f6" x="786.38876" y="51.158427" style="fill: #679fce; stroke: #679fce"/>
     <use xlink:href="#m09f61e73f6" x="600.0016" y="115.722841" style="fill: #679fce; stroke: #679fce"/>
     <use xlink:href="#m09f61e73f6" x="614.121494" y="46.119873" style="fill: #679fce; stroke: #679fce"/>
     <use xlink:href="#m09f61e73f6" x="413.831502" y="114.806438" style="fill: #679fce; stroke: #679fce"/>
     <use xlink:href="#m09f61e73f6" x="443.150499" y="34.690909" style="fill: #679fce; stroke: #679fce"/>
     <use xlink:href="#m09f61e73f6" x="762.061958" y="242.583459" style="fill: #679fce; stroke: #679fce"/>
     <use xlink:href="#m09f61e73f6" x="563.326679" y="296.509091" style="fill: #679fce; stroke: #679fce"/>
     <use xlink:href="#m09f61e73f6" x="578.920653" y="219.640753" style="fill: #679fce; stroke: #679fce"/>
     <use xlink:href="#m09f61e73f6" x="390.09124" y="224.737456" style="fill: #679fce; stroke: #679fce"/>
    </g>
   </g>
   <g id="patch_8">
    <path d="M 348.48 324 
L 348.48 7.2 
" style="fill: none; stroke: #000000; stroke-width: 0.8; stroke-linejoin: miter; stroke-linecap: square"/>
   </g>
   <g id="patch_9">
    <path d="M 828 324 
L 828 7.2 
" style="fill: none; stroke: #000000; stroke-width: 0.8; stroke-linejoin: miter; stroke-linecap: square"/>
   </g>
   <g id="patch_10">
    <path d="M 348.48 324 
L 828 324 
" style="fill: none; stroke: #000000; stroke-width: 0.8; stroke-linejoin: miter; stroke-linecap: square"/>
   </g>
   <g id="patch_11">
    <path d="M 348.48 7.2 
L 828 7.2 
" style="fill: none; stroke: #000000; stroke-width: 0.8; stroke-linejoin: miter; stroke-linecap: square"/>
   </g>
   <g id="text_6">
    <g clip-path="url(#p3f140eead1)">
     <!-- (1, 2, 3) -->
     <g transform="translate(771.060015 119.1914) scale(0.14 -0.14)">
      <defs>
       <path id="Helvetica-28" d="M 1894 4666 
Q 1403 3713 1256 3263 
Q 1034 2578 1034 1681 
Q 1034 775 1288 25 
Q 1444 -438 1903 -1306 
L 1525 -1306 
Q 1069 -594 959 -397 
Q 850 -200 722 138 
Q 547 600 478 1125 
Q 444 1397 444 1644 
Q 444 2569 734 3291 
Q 919 3750 1503 4666 
L 1894 4666 
z
" transform="scale(0.015625)"/>
       <path id="Helvetica-2c" d="M 531 -653 
Q 747 -616 834 -350 
Q 881 -209 881 -78 
Q 881 -56 879 -39 
Q 878 -22 872 0 
L 531 0 
L 531 681 
L 1200 681 
L 1200 50 
Q 1200 -322 1050 -603 
Q 900 -884 531 -950 
L 531 -653 
z
" transform="scale(0.015625)"/>
       <path id="Helvetica-20" transform="scale(0.015625)"/>
       <path id="Helvetica-29" d="M 222 -1306 
Q 719 -338 863 106 
Q 1081 778 1081 1681 
Q 1081 2584 828 3334 
Q 672 3797 213 4666 
L 591 4666 
Q 1072 3897 1173 3717 
Q 1275 3538 1394 3222 
Q 1544 2831 1608 2450 
Q 1672 2069 1672 1716 
Q 1672 791 1378 66 
Q 1194 -400 613 -1306 
L 222 -1306 
z
" transform="scale(0.015625)"/>
      </defs>
      <use xlink:href="#Helvetica-28"/>
      <use xlink:href="#Helvetica-31" x="33.300781"/>
      <use xlink:href="#Helvetica-2c" x="88.916016"/>
      <use xlink:href="#Helvetica-20" x="116.699219"/>
      <use xlink:href="#Helvetica-32" x="144.482422"/>
      <use xlink:href="#Helvetica-2c" x="200.097656"/>
      <use xlink:href="#Helvetica-20" x="227.880859"/>
      <use xlink:href="#Helvetica-33" x="255.664062"/>
      <use xlink:href="#Helvetica-29" x="311.279297"/>
     </g>
    </g>
   </g>
   <g id="text_7">
    <g clip-path="url(#p3f140eead1)">
     <!-- (0, 1, 2) -->
     <g transform="translate(774.498049 37.834061) scale(0.14 -0.14)">
      <use xlink:href="#Helvetica-28"/>
      <use xlink:href="#Helvetica-30" x="33.300781"/>
      <use xlink:href="#Helvetica-2c" x="88.916016"/>
      <use xlink:href="#Helvetica-20" x="116.699219"/>
      <use xlink:href="#Helvetica-31" x="144.482422"/>
      <use xlink:href="#Helvetica-2c" x="200.097656"/>
      <use xlink:href="#Helvetica-20" x="227.880859"/>
      <use xlink:href="#Helvetica-32" x="255.664062"/>
      <use xlink:href="#Helvetica-29" x="311.279297"/>
     </g>
    </g>
   </g>
   <g id="text_8">
    <g clip-path="url(#p3f140eead1)">
     <!-- (1, 2, 4) -->
     <g transform="translate(588.110889 102.398475) scale(0.14 -0.14)">
      <use xlink:href="#Helvetica-28"/>
      <use xlink:href="#Helvetica-31" x="33.300781"/>
      <use xlink:href="#Helvetica-2c" x="88.916016"/>
      <use xlink:href="#Helvetica-20" x="116.699219"/>
      <use xlink:href="#Helvetica-32" x="144.482422"/>
      <use xlink:href="#Helvetica-2c" x="200.097656"/>
      <use xlink:href="#Helvetica-20" x="227.880859"/>
      <use xlink:href="#Helvetica-34" x="255.664062"/>
      <use xlink:href="#Helvetica-29" x="311.279297"/>
     </g>
    </g>
   </g>
   <g id="text_9">
    <g clip-path="url(#p3f140eead1)">
     <!-- (0, 1, 3) -->
     <g transform="translate(602.230783 32.795507) scale(0.14 -0.14)">
      <use xlink:href="#Helvetica-28"/>
      <use xlink:href="#Helvetica-30" x="33.300781"/>
      <use xlink:href="#Helvetica-2c" x="88.916016"/>
      <use xlink:href="#Helvetica-20" x="116.699219"/>
      <use xlink:href="#Helvetica-31" x="144.482422"/>
      <use xlink:href="#Helvetica-2c" x="200.097656"/>
      <use xlink:href="#Helvetica-20" x="227.880859"/>
      <use xlink:href="#Helvetica-33" x="255.664062"/>
      <use xlink:href="#Helvetica-29" x="311.279297"/>
     </g>
    </g>
   </g>
   <g id="text_10">
    <g clip-path="url(#p3f140eead1)">
     <!-- (1, 3, 4) -->
     <g transform="translate(401.940791 101.482072) scale(0.14 -0.14)">
      <use xlink:href="#Helvetica-28"/>
      <use xlink:href="#Helvetica-31" x="33.300781"/>
      <use xlink:href="#Helvetica-2c" x="88.916016"/>
      <use xlink:href="#Helvetica-20" x="116.699219"/>
      <use xlink:href="#Helvetica-33" x="144.482422"/>
      <use xlink:href="#Helvetica-2c" x="200.097656"/>
      <use xlink:href="#Helvetica-20" x="227.880859"/>
      <use xlink:href="#Helvetica-34" x="255.664062"/>
      <use xlink:href="#Helvetica-29" x="311.279297"/>
     </g>
    </g>
   </g>
   <g id="text_11">
    <g clip-path="url(#p3f140eead1)">
     <!-- (0, 1, 4) -->
     <g transform="translate(431.259787 21.366543) scale(0.14 -0.14)">
      <use xlink:href="#Helvetica-28"/>
      <use xlink:href="#Helvetica-30" x="33.300781"/>
      <use xlink:href="#Helvetica-2c" x="88.916016"/>
      <use xlink:href="#Helvetica-20" x="116.699219"/>
      <use xlink:href="#Helvetica-31" x="144.482422"/>
      <use xlink:href="#Helvetica-2c" x="200.097656"/>
      <use xlink:href="#Helvetica-20" x="227.880859"/>
      <use xlink:href="#Helvetica-34" x="255.664062"/>
      <use xlink:href="#Helvetica-29" x="311.279297"/>
     </g>
    </g>
   </g>
   <g id="text_12">
    <g clip-path="url(#p3f140eead1)">
     <!-- (0, 2, 3) -->
     <g transform="translate(750.171246 229.259093) scale(0.14 -0.14)">
      <use xlink:href="#Helvetica-28"/>
      <use xlink:href="#Helvetica-30" x="33.300781"/>
      <use xlink:href="#Helvetica-2c" x="88.916016"/>
      <use xlink:href="#Helvetica-20" x="116.699219"/>
      <use xlink:href="#Helvetica-32" x="144.482422"/>
      <use xlink:href="#Helvetica-2c" x="200.097656"/>
      <use xlink:href="#Helvetica-20" x="227.880859"/>
      <use xlink:href="#Helvetica-33" x="255.664062"/>
      <use xlink:href="#Helvetica-29" x="311.279297"/>
     </g>
    </g>
   </g>
   <g id="text_13">
    <g clip-path="url(#p3f140eead1)">
     <!-- (2, 3, 4) -->
     <g transform="translate(551.435968 283.184725) scale(0.14 -0.14)">
      <use xlink:href="#Helvetica-28"/>
      <use xlink:href="#Helvetica-32" x="33.300781"/>
      <use xlink:href="#Helvetica-2c" x="88.916016"/>
      <use xlink:href="#Helvetica-20" x="116.699219"/>
      <use xlink:href="#Helvetica-33" x="144.482422"/>
      <use xlink:href="#Helvetica-2c" x="200.097656"/>
      <use xlink:href="#Helvetica-20" x="227.880859"/>
      <use xlink:href="#Helvetica-34" x="255.664062"/>
      <use xlink:href="#Helvetica-29" x="311.279297"/>
     </g>
    </g>
   </g>
   <g id="text_14">
    <g clip-path="url(#p3f140eead1)">
     <!-- (0, 2, 4) -->
     <g transform="translate(567.029942 206.316387) scale(0.14 -0.14)">
      <use xlink:href="#Helvetica-28"/>
      <use xlink:href="#Helvetica-30" x="33.300781"/>
      <use xlink:href="#Helvetica-2c" x="88.916016"/>
      <use xlink:href="#Helvetica-20" x="116.699219"/>
      <use xlink:href="#Helvetica-32" x="144.482422"/>
      <use xlink:href="#Helvetica-2c" x="200.097656"/>
      <use xlink:href="#Helvetica-20" x="227.880859"/>
      <use xlink:href="#Helvetica-34" x="255.664062"/>
      <use xlink:href="#Helvetica-29" x="311.279297"/>
     </g>
    </g>
   </g>
   <g id="text_15">
    <g clip-path="url(#p3f140eead1)">
     <!-- (0, 3, 4) -->
     <g transform="translate(378.200528 211.41309) scale(0.14 -0.14)">
      <use xlink:href="#Helvetica-28"/>
      <use xlink:href="#Helvetica-30" x="33.300781"/>
      <use xlink:href="#Helvetica-2c" x="88.916016"/>
      <use xlink:href="#Helvetica-20" x="116.699219"/>
      <use xlink:href="#Helvetica-33" x="144.482422"/>
      <use xlink:href="#Helvetica-2c" x="200.097656"/>
      <use xlink:href="#Helvetica-20" x="227.880859"/>
      <use xlink:href="#Helvetica-34" x="255.664062"/>
      <use xlink:href="#Helvetica-29" x="311.279297"/>
     </g>
    </g>
   </g>
  </g>
 </g>
 <defs>
  <clipPath id="p1641a2d09e">
   <rect x="7.2" y="7.2" width="319.68" height="316.8"/>
  </clipPath>
  <clipPath id="p3f140eead1">
   <rect x="348.48" y="7.2" width="479.52" height="316.8"/>
  </clipPath>
 </defs>
</svg>
